<svg width="150" height="444" viewBox="0 0 150 444" fill="none" xmlns="http://www.w3.org/2000/svg">
<mask id="mask0_1121_13797" style="mask-type:alpha" maskUnits="userSpaceOnUse" x="0" y="0" width="150" height="444">
<rect width="150" height="444" fill="#D9D9D9"/>
</mask>
<g mask="url(#mask0_1121_13797)">
<path d="M75 75C116.421 75 150 41.4214 150 0C150 -41.4214 116.421 -75 75 -75C33.5786 -75 0 -41.4214 0 0C0 41.4214 33.5786 75 75 75Z" fill="url(#paint0_linear_1121_13797)"/>
<path d="M-1.31134e-05 6.55671e-06C-41.4214 1.01779e-05 -75 33.5787 -75 75C-75 116.421 -41.4214 150 0 150C41.4214 150 75 116.421 75 75C75 33.5786 41.4213 2.93554e-06 -1.31134e-05 6.55671e-06Z" fill="url(#paint1_linear_1121_13797)"/>
<path d="M150 6.55671e-06C108.579 1.01779e-05 75 33.5787 75 75C75 116.421 108.579 150 150 150C191.421 150 225 116.421 225 75C225 33.5786 191.421 2.93554e-06 150 6.55671e-06Z" fill="url(#paint2_linear_1121_13797)"/>
<path d="M75 225C116.421 225 150 191.421 150 150C150 108.579 116.421 75 75 75C33.5786 75 0 108.579 0 150C0 191.421 33.5786 225 75 225Z" fill="url(#paint3_linear_1121_13797)"/>
<path d="M-1.31134e-05 150C-41.4214 150 -75 183.579 -75 225C-75 266.421 -41.4214 300 0 300C41.4214 300 75 266.421 75 225C75 183.579 41.4213 150 -1.31134e-05 150Z" fill="url(#paint4_linear_1121_13797)"/>
<path d="M150 150C108.579 150 75 183.579 75 225C75 266.421 108.579 300 150 300C191.421 300 225 266.421 225 225C225 183.579 191.421 150 150 150Z" fill="url(#paint5_linear_1121_13797)"/>
<path d="M75 375C116.421 375 150 341.421 150 300C150 258.579 116.421 225 75 225C33.5786 225 0 258.579 0 300C0 341.421 33.5786 375 75 375Z" fill="url(#paint6_linear_1121_13797)"/>
<path d="M-1.31134e-05 300C-41.4214 300 -75 333.579 -75 375C-75 416.421 -41.4214 450 0 450C41.4214 450 75 416.421 75 375C75 333.579 41.4213 300 -1.31134e-05 300Z" fill="url(#paint7_linear_1121_13797)"/>
<path d="M150 300C108.579 300 75 333.579 75 375C75 416.421 108.579 450 150 450C191.421 450 225 416.421 225 375C225 333.579 191.421 300 150 300Z" fill="url(#paint8_linear_1121_13797)"/>
<path d="M75 525C116.421 525 150 491.421 150 450C150 408.579 116.421 375 75 375C33.5786 375 0 408.579 0 450C0 491.421 33.5786 525 75 525Z" fill="url(#paint9_linear_1121_13797)"/>
</g>
<defs>
<linearGradient id="paint0_linear_1121_13797" x1="75" y1="-75" x2="75" y2="75" gradientUnits="userSpaceOnUse">
<stop stop-color="#98E267"/>
<stop offset="1" stop-color="#3D9E2A"/>
</linearGradient>
<linearGradient id="paint1_linear_1121_13797" x1="0" y1="150" x2="-1.31134e-05" y2="6.55671e-06" gradientUnits="userSpaceOnUse">
<stop stop-color="#98E267"/>
<stop offset="1" stop-color="#3D9E2A"/>
</linearGradient>
<linearGradient id="paint2_linear_1121_13797" x1="150" y1="150" x2="150" y2="6.55671e-06" gradientUnits="userSpaceOnUse">
<stop stop-color="#98E267"/>
<stop offset="1" stop-color="#3D9E2A"/>
</linearGradient>
<linearGradient id="paint3_linear_1121_13797" x1="75" y1="75" x2="75" y2="225" gradientUnits="userSpaceOnUse">
<stop stop-color="#98E267"/>
<stop offset="1" stop-color="#3D9E2A"/>
</linearGradient>
<linearGradient id="paint4_linear_1121_13797" x1="0" y1="300" x2="-1.31134e-05" y2="150" gradientUnits="userSpaceOnUse">
<stop stop-color="#98E267"/>
<stop offset="1" stop-color="#3D9E2A"/>
</linearGradient>
<linearGradient id="paint5_linear_1121_13797" x1="150" y1="300" x2="150" y2="150" gradientUnits="userSpaceOnUse">
<stop stop-color="#98E267"/>
<stop offset="1" stop-color="#3D9E2A"/>
</linearGradient>
<linearGradient id="paint6_linear_1121_13797" x1="75" y1="225" x2="75" y2="375" gradientUnits="userSpaceOnUse">
<stop stop-color="#98E267"/>
<stop offset="1" stop-color="#3D9E2A"/>
</linearGradient>
<linearGradient id="paint7_linear_1121_13797" x1="0" y1="450" x2="-1.31134e-05" y2="300" gradientUnits="userSpaceOnUse">
<stop stop-color="#98E267"/>
<stop offset="1" stop-color="#3D9E2A"/>
</linearGradient>
<linearGradient id="paint8_linear_1121_13797" x1="150" y1="450" x2="150" y2="300" gradientUnits="userSpaceOnUse">
<stop stop-color="#98E267"/>
<stop offset="1" stop-color="#3D9E2A"/>
</linearGradient>
<linearGradient id="paint9_linear_1121_13797" x1="75" y1="375" x2="75" y2="525" gradientUnits="userSpaceOnUse">
<stop stop-color="#98E267"/>
<stop offset="1" stop-color="#3D9E2A"/>
</linearGradient>
</defs>
</svg>
